<svg width="144" height="145" viewBox="0 0 144 145" fill="none" xmlns="http://www.w3.org/2000/svg">
<path d="M91.5678 92.5661C85.3232 98.902 78.6848 104.837 71.6922 110.337C64.7724 104.751 58.1388 98.82 51.8165 92.5661C45.4818 86.3215 39.5477 79.6831 34.0497 72.6905C39.5477 65.6979 45.4818 59.0595 51.8165 52.8149C58.1379 46.5612 64.7716 40.6313 71.6922 35.0481C78.6128 40.6313 85.2465 46.5612 91.5678 52.8149C97.9035 59.0585 103.838 65.697 109.335 72.6905C103.925 79.7564 97.9852 86.4007 91.5678 92.5661V92.5661ZM97.592 47.0821C91.5706 41.0343 85.2379 35.3046 78.6197 29.9163C96.3865 16.961 112.951 9.13741 124.395 9.13741C125.911 9.00058 127.438 9.17031 128.887 9.63649C130.336 10.1027 131.676 10.8557 132.827 11.8508C139.452 18.476 134.331 37.4484 118.673 60.3326H128.609C131.695 55.577 134.51 50.6509 137.041 45.5779C145.473 27.5088 146.077 13.6574 138.84 6.12889C134.717 2.67646 129.469 0.858044 124.093 1.01873C104.818 1.01873 74.0925 19.0878 46.0946 47.0821C40.0468 53.1036 34.3171 59.4363 28.9288 66.0545C10.2587 40.4677 3.9358 18.7855 10.8597 11.8616C13.2119 9.89759 16.2353 8.92462 19.2915 9.1482C29.5334 9.1482 43.9858 15.4747 59.345 26.0153V16.378C44.2881 6.43838 30.1344 1.01873 19.2915 1.01873C16.71 0.884994 14.1278 1.26918 11.697 2.14865C9.26627 3.02812 7.03607 4.38511 5.13777 6.13969C-2.39071 13.6682 -1.48024 27.5196 6.94792 45.5887C14.7751 62.4522 28.9288 81.1223 46.0946 98.5904C52.1161 104.638 58.4488 110.368 65.067 115.756C47.6025 128.711 30.7353 136.535 19.2915 136.535C17.7752 136.67 16.2473 136.498 14.7988 136.03C13.3502 135.562 12.0106 134.807 10.8597 133.811C4.2345 127.186 9.35545 108.213 25.0134 85.3255H15.3797C12.2943 90.0816 9.47931 95.0076 6.94792 100.08C-1.48024 118.164 -2.08842 132.012 5.13777 139.547C7.03682 141.3 9.26722 142.656 11.6979 143.535C14.1285 144.414 16.7103 144.798 19.2915 144.665C38.5661 144.665 69.2846 126.595 97.2897 98.6012C103.338 92.5805 109.068 86.2478 114.456 79.6288C133.111 105.216 139.452 126.898 132.525 133.811C131.373 134.805 130.033 135.557 128.584 136.023C127.136 136.488 125.608 136.658 124.093 136.521C113.855 136.521 99.3986 130.198 84.0393 119.657V129.593C99.3986 139.245 113.552 144.967 124.093 144.967C126.674 145.101 129.257 144.716 131.687 143.837C134.118 142.957 136.348 141.6 138.247 139.846C145.775 132.317 144.872 118.466 136.447 100.397C128.912 83.2311 114.758 64.561 97.592 47.0821Z" fill="#9B51E0"/>
<path d="M71.9333 83.7889C77.8958 83.7889 82.7294 78.9553 82.7294 72.9928C82.7294 67.0303 77.8958 62.1967 71.9333 62.1967C65.9708 62.1967 61.1372 67.0303 61.1372 72.9928C61.1372 78.9553 65.9708 83.7889 71.9333 83.7889Z" fill="#9B51E0"/>
</svg>
