<svg width="500" height="250" viewBox="0 0 500 250" fill="none" xmlns="http://www.w3.org/2000/svg">
<rect width="500" height="250" fill="#1D1D26"/>
<g opacity="0.5">
<path d="M294.318 149.047C291.349 149.047 288.38 148.607 285.411 147.947C283.981 147.617 282.661 147.177 281.232 146.738" fill="#8F6948"/>
<path d="M294.318 149.047C291.349 149.047 288.38 148.607 285.411 147.947C283.981 147.617 282.661 147.177 281.232 146.738" stroke="#8F6948" stroke-width="3" stroke-miterlimit="10" stroke-linecap="round"/>
<path d="M228.776 107.148C241.202 114.406 250 124.524 250 124.524" stroke="#55295E" stroke-width="5" stroke-miterlimit="10" stroke-linecap="round"/>
<path d="M205.572 100C208.541 100 211.51 100.44 214.479 101.1C215.909 101.43 217.229 101.87 218.658 102.309" fill="#8F6948"/>
<path d="M205.572 100C208.541 100 211.51 100.44 214.479 101.1C215.909 101.43 217.229 101.87 218.658 102.309" stroke="#8F6948" stroke-width="3" stroke-miterlimit="10" stroke-linecap="round"/>
<path d="M250 124.523C250 124.523 228.776 148.827 205.572 148.827C182.368 148.827 177.199 134.091 177.199 134.091C177.199 134.091 172.251 125.403 177.199 114.736C177.199 114.736 180.938 104.399 195.674 101.1" stroke="#55295E" stroke-width="2" stroke-miterlimit="10" stroke-linecap="round"/>
<path d="M271.224 141.899C258.798 134.641 250 124.523 250 124.523" stroke="#55295E" stroke-width="5" stroke-miterlimit="10" stroke-linecap="round"/>
<path d="M250 124.523C250 124.523 271.224 100.22 294.428 100.22C317.632 100.22 322.801 114.956 322.801 114.956C322.801 114.956 327.749 123.644 322.801 134.311C322.801 134.311 319.062 144.648 304.326 147.947" stroke="#55295E" stroke-width="2" stroke-miterlimit="10" stroke-linecap="round"/>
</g>
</svg>
